#!OML:ASF E:\emotionWalksFemale\Project 1\Capture day 1\Session 1\Female1.ASF
:FULLY-SPECIFIED
:DEGREES
3377
root 10.4051 15.3188 -12.11 357.551 -16.1845 -4.0301
lowerback 5.53861 0.156675 -1.64971
upperback -2.61155 -0.0891298 -2.90628
thorax -5.83152 -0.0449917 -2.09114
lowerneck -6.04948 1.8473 0.932351
upperneck 20.9959 1.97588 1.9473
head 7.41884 1.1588 0.634629
rclavicle 4.33351e-014 -5.725e-014
rhumerus -42.6529 -24.2701 -19.6524
rradius 36.0043
rwrist 11.5897
rhand 8.38042 -48.0924
rfingers 7.12502
rthumb 33.5887 -434.967
lclavicle 4.33351e-014 -5.725e-014
lhumerus -41.3518 3.55226 76.9086
lradius 31.2698
lwrist -29.3061
lhand -7.25395 -34.8767
lfingers 7.12502
lthumb 18.6266 -5.7485
rfemur -4.2206 20.3048 34.5437
rtibia 20.0003
rfoot -18.7619 -6.25089
rtoes -39.9496
lfemur -10.8 -6.23231 -15.3805
ltibia 52.2024
lfoot 43.2324 -1.79266
ltoes 35.6768
3378
root 10.4116 15.3273 -12.1117 357.62 -16.3823 -3.8856
lowerback 5.50007 0.137395 -1.62675
upperback -2.67317 -0.117512 -2.96491
thorax -5.87545 -0.0614183 -2.16291
lowerneck -6.23047 1.86252 1.24425
upperneck 21.2023 2.00068 1.6795
head 7.52647 1.17209 0.500925
rclavicle 5.76476e-015 -2.54444e-014
rhumerus -42.7844 -23.97 -19.8162
rradius 36.089
rwrist 11.357
rhand 8.33867 -47.7786
rfingers 7.12502
rthumb 33.549 -434.661
lclavicle 5.76476e-015 -2.54444e-014
lhumerus -40.9199 2.79101 77.2036
lradius 31.2717
lwrist -28.1996
lhand -6.46536 -34.766
lfingers 7.12502
lthumb 19.385 -5.71226
rfemur -4.28592 20.5718 34.3686
rtibia 19.9849
rfoot -19.0201 -6.64523
rtoes -40.6745
lfemur -10.8677 -6.20639 -15.5732
ltibia 52.1031
lfoot 43.2276 -2.26215
ltoes 33.6422
3379
root 10.4203 15.3318 -12.1139 357.703 -16.6148 -3.84615
lowerback 5.444 0.0536744 -1.56886
upperback -2.73444 -0.219854 -2.87487
thorax -5.90994 -0.112291 -2.0909
lowerneck -6.00499 1.92675 1.1104
upperneck 21.0906 2.11944 1.64208
head 7.44724 1.21328 0.517118
rclavicle 2.88238e-014 -1.11319e-014
rhumerus -42.6089 -23.7469 -19.9235
rradius 36.1644
rwrist 11.2309
rhand 8.4102 -47.524
rfingers 7.12502
rthumb 33.617 -434.392
lclavicle 2.88238e-014 -1.11319e-014
lhumerus -40.685 2.35872 77.5497
lradius 31.3077
lwrist -26.5405
lhand -6.18285 -34.5632
lfingers 7.12502
lthumb 19.6566 -5.53695
rfemur -4.32319 20.8596 34.3088
rtibia 19.9394
rfoot -19.2521 -7.08637
rtoes -41.5626
lfemur -10.8849 -6.18007 -15.6667
ltibia 51.984
lfoot 43.1126 -2.10242
ltoes 33.3638
3380
root 10.4297 15.3357 -12.1197 357.777 -16.8646 -3.83163
lowerback 5.37549 -0.173207 -1.58849
upperback -2.82506 -0.507849 -2.573
thorax -5.96927 -0.246784 -1.73481
lowerneck -5.4057 2.20579 0.518547
upperneck 20.7157 2.59379 1.6443
head 7.20566 1.39197 0.642885
rclavicle -1.49089e-014 6.36111e-015
rhumerus -41.7813 -23.4105 -20.1637
rradius 36.128
rwrist 11.1841
rhand 8.42047 -47.3426
rfingers 7.12502
rthumb 33.6267 -434.208
lclavicle -1.49089e-014 6.36111e-015
lhumerus -40.8885 2.77933 77.7535
lradius 31.7478
lwrist -25.1697
lhand -6.30216 -34.5046
lfingers 7.12502
lthumb 19.5419 -5.46669
rfemur -4.3766 21.0739 34.2784
rtibia 19.9324
rfoot -19.5428 -7.46623
rtoes -42.2331
lfemur -10.8862 -6.14938 -15.7189
ltibia 51.8194
lfoot 43.1155 -1.83821
ltoes 33.8822
3381
root 10.4375 15.3426 -12.1255 357.809 -17.0487 -3.66485
lowerback 5.23193 -0.572916 -1.81013
upperback -3.42595 -1.04718 -2.1011
thorax -6.51812 -0.490468 -1.06371
lowerneck -3.00711 2.70189 -0.410206
upperneck 20.1448 3.41154 1.49506
head 6.57683 1.69654 0.763666
rclavicle -3.69739e-014 -1.74931e-014
rhumerus -40.7113 -21.1353 -20.7168
rradius 36.3279
rwrist 10.1832
rhand 7.95546 -47.4829
rfingers 7.12502
rthumb 33.1847 -434.444
lclavicle -3.69739e-014 -1.74931e-014
lhumerus -42.3707 3.75538 77.8208
lradius 32.2428
lwrist -24.0845
lhand -6.34237 -34.6674
lfingers 7.12502
lthumb 19.5032 -5.62557
rfemur -4.43009 21.2918 34.0917
rtibia 19.9435
rfoot -19.8481 -7.85988
rtoes -42.8444
lfemur -10.8769 -6.11797 -15.922
ltibia 51.6107
lfoot 43.3098 -1.83987
ltoes 33.9582
3382
root 10.4456 15.3517 -12.1294 357.823 -17.2927 -3.41578
lowerback 5.10525 -0.727493 -1.96324
upperback -3.66812 -1.26159 -1.96066
thorax -6.69684 -0.584395 -0.809424
lowerneck -2.3429 2.90293 -0.628858
upperneck 20.2111 3.73768 1.2857
head 6.47928 1.81863 0.742721
rclavicle -4.45278e-014 -7.95139e-015
rhumerus -40.414 -20.0283 -21.017
rradius 36.6503
rwrist 9.35986
rhand 7.67313 -47.644
rfingers 7.12502
rthumb 32.9162 -434.662
lclavicle -4.45278e-014 -7.95139e-015
lhumerus -42.8053 4.05716 77.8033
lradius 32.5998
lwrist -23.3815
lhand -6.24585 -34.7698
lfingers 7.12502
lthumb 19.596 -5.73742
rfemur -4.48142 21.5204 33.8156
rtibia 19.9559
rfoot -20.1577 -8.34815
rtoes -43.9975
lfemur -10.8403 -6.0377 -16.2226
ltibia 51.3545
lfoot 43.4965 -1.78483
ltoes 33.6581
3383
root 10.4597 15.3609 -12.1401 357.951 -17.5725 -3.27321
lowerback 5.0794 -0.747202 -1.82794
upperback -3.70436 -1.27981 -1.99552
thorax -6.72404 -0.600563 -0.919995
lowerneck -2.6868 2.92746 -0.554402
upperneck 20.4996 3.79055 1.1532
head 6.63588 1.83708 0.701207
rclavicle 1.70955e-014 1.27222e-014
rhumerus -40.508 -20.1178 -21.008
rradius 36.8323
rwrist 9.19967
rhand 7.82955 -47.4317
rfingers 7.12502
rthumb 33.065 -434.418
lclavicle 1.70955e-014 1.27222e-014
lhumerus -42.4245 3.88656 77.7667
lradius 32.7398
lwrist -22.9061
lhand -6.07115 -34.7833
lfingers 7.12502
lthumb 19.764 -5.76807
rfemur -4.66208 21.6353 33.5764
rtibia 19.9702
rfoot -20.4098 -8.68352
rtoes -45.124
lfemur -10.9343 -5.98053 -16.4101
ltibia 51.0818
lfoot 43.6513 -1.43589
ltoes 33.5805
3384
root 10.4768 15.3698 -12.1477 358.076 -17.8151 -3.11339
lowerback 4.99131 -0.768636 -1.64709
upperback -3.6005 -1.29226 -2.06426
thorax -6.56841 -0.617825 -1.09294
lowerneck -3.22176 2.99458 -0.416608
upperneck 20.6104 3.88825 1.07867
head 6.76913 1.88822 0.672064
rclavicle -2.98177e-015 -1.59028e-015
rhumerus -40.4537 -20.7039 -20.9813
rradius 36.7986
rwrist 9.43776
rhand 7.92636 -47.0793
rfingers 7.12502
rthumb 33.157 -434.046
lclavicle -2.98177e-015 -1.59028e-015
lhumerus -41.3776 3.47094 77.8196
lradius 32.2637
lwrist -21.9404
lhand -5.74433 -34.8152
lfingers 7.12502
lthumb 20.0781 -5.83268
rfemur -4.83676 21.7113 33.292
rtibia 19.9837
rfoot -20.5498 -8.92308
rtoes -45.7693
lfemur -11.0257 -5.99488 -16.65
ltibia 50.8254
lfoot 43.6873 -1.32827
ltoes 32.6688
3385
root 10.4866 15.3755 -12.142 358.043 -18.0913 -2.9279
lowerback 4.85782 -0.774119 -1.59955
upperback -3.36627 -1.28487 -2.07598
thorax -6.24452 -0.617979 -1.13425
lowerneck -3.82244 3.13106 -0.301417
upperneck 20.5294 4.07746 1.04085
head 6.85069 1.98649 0.664094
rclavicle 3.06128e-014 3.18055e-015
rhumerus -40.1707 -21.3578 -20.9814
rradius 36.6878
rwrist 9.67681
rhand 8.03851 -46.8615
rfingers 7.12502
rthumb 33.2636 -433.806
lclavicle 3.06128e-014 3.18055e-015
lhumerus -40.2867 3.17753 77.8922
lradius 31.9891
lwrist -21.2249
lhand -5.2266 -34.6763
lfingers 7.12502
lthumb 20.5757 -5.74671
rfemur -4.80299 22.0099 33.0984
rtibia 20.0242
rfoot -20.6297 -9.63587
rtoes -46.3327
lfemur -10.899 -6.01557 -16.9396
ltibia 50.6013
lfoot 43.6158 -1.34532
ltoes 31.7053
3386
root 10.4923 15.377 -12.14 358.026 -18.344 -2.82344
lowerback 4.81729 -0.820701 -1.58693
upperback -3.30162 -1.33655 -1.96914
thorax -6.15067 -0.641747 -1.02526
lowerneck -4.01252 3.24601 -0.273153
upperneck 20.4376 4.27308 0.836302
head 6.85897 2.0668 0.609988
rclavicle -2.78299e-015 7.95139e-015
rhumerus -39.8909 -21.5555 -20.8678
rradius 36.6372
rwrist 9.74126
rhand 8.20295 -46.6795
rfingers 7.12502
rthumb 33.42 -433.59
lclavicle -2.78299e-015 7.95139e-015
lhumerus -39.8178 3.24957 77.8754
lradius 32.2683
lwrist -21.4214
lhand -4.58543 -34.2092
lfingers 7.12502
lthumb 21.1917 -5.34746
rfemur -4.78608 22.4938 33.0345
rtibia 20.1017
rfoot -20.9199 -10.5969
rtoes -46.7885
lfemur -10.8203 -6.00835 -17.1089
ltibia 50.4165
lfoot 43.7027 -1.12149
ltoes 32.3405
3387
root 10.5024 15.3795 -12.1478 358.078 -18.5076 -2.71324
lowerback 4.87846 -0.868384 -1.49022
upperback -3.39761 -1.39571 -1.93337
thorax -6.28899 -0.67365 -1.03515
lowerneck -3.78327 3.24563 -0.185749
upperneck 20.3456 4.31377 0.549154
head 6.79783 2.06981 0.500542
rclavicle 2.46493e-014 1.66979e-014
rhumerus -39.935 -21.3773 -20.7233
rradius 36.667
rwrist 9.64333
rhand 7.9931 -46.646
rfingers 7.12502
rthumb 33.2205 -433.599
lclavicle 2.46493e-014 1.66979e-014
lhumerus -39.5767 3.20289 77.7347
lradius 32.4681
lwrist -21.7222
lhand -4.49056 -33.9866
lfingers 7.12502
lthumb 21.2828 -5.13513
rfemur -4.90786 22.8858 32.902
rtibia 20.2056
rfoot -21.4254 -11.2193
rtoes -45.8816
lfemur -10.8744 -5.96618 -17.2603
ltibia 50.2361
lfoot 43.8017 -0.859843
ltoes 33.0129
3388
root 10.5134 15.3867 -12.1546 358.078 -18.6047 -2.59622
lowerback 4.90091 -0.970954 -1.41308
upperback -3.47026 -1.52503 -1.85334
thorax -6.37941 -0.738444 -0.981026
lowerneck -3.29171 3.29409 -0.318734
upperneck 20.1141 4.41717 0.385815
head 6.63771 2.09873 0.464556
rclavicle -3.08116e-014 1.35174e-014
rhumerus -39.7654 -21.2593 -20.6242
rradius 36.5951
rwrist 9.56918
rhand 7.54549 -46.7696
rfingers 7.12502
rthumb 32.7948 -433.813
lclavicle -3.08116e-014 1.35174e-014
lhumerus -39.328 3.30986 77.54
lradius 32.476
lwrist -21.5631
lhand -4.23742 -34.1016
lfingers 7.12502
lthumb 21.526 -5.27774
rfemur -4.9522 23.2737 32.7704
rtibia 20.2985
rfoot -21.9124 -11.7323
rtoes -43.0674
lfemur -10.86 -5.90047 -17.4045
ltibia 50.0546
lfoot 43.863 -0.826508
ltoes 32.7605
